<?xml version="1.0" encoding="UTF-8" standalone="no"?>
<!-- Uploaded to: SVG Repo, www.svgrepo.com, Generator: SVG Repo Mixer Tools -->

<svg
   fill="#000000"
   width="800px"
   height="800px"
   viewBox="0 0 24 24"
   data-name="Layer 1"
   version="1.1"
   id="svg1"
   xml:space="preserve"
   xmlns="http://www.w3.org/2000/svg"
   xmlns:svg="http://www.w3.org/2000/svg"><defs
     id="defs1" /><g
     id="g31"><path
       d="m 22.689616,11.00632 c -1.082546,0 -1.960124,-0.877579 -1.960124,-1.9601234 V 6.1060102 c 0,-2.1650938 -1.755156,-3.920249 -3.92025,-3.920249 -1.30675,0 -1.30675,1.9601245 0,1.9601245 1.082546,0 1.960125,0.8775777 1.960125,1.9601245 v 2.9401864 c 0.0064,1.1291004 0.499273,2.2006274 1.352486,2.9401854 -0.853213,0.739556 -1.346114,1.811084 -1.352486,2.940186 v 2.940187 c 0,1.082546 -0.877579,1.960125 -1.960125,1.960125 -1.30675,0 -1.30675,1.960124 0,1.960124 2.165094,0 3.92025,-1.755155 3.92025,-3.920249 v -2.940187 c 0,-1.082547 0.877578,-1.960125 1.960124,-1.960125 1.306749,0 1.306749,-1.960123 0,-1.960123 z"
       id="path1"
       style="display:none;fill:#ffffff;stroke-width:0.980062"
       transform="translate(0.22420891)" /><g
       id="g2"
       transform="matrix(0.91755477,0,0,0.91755477,1.205827,1.0115948)"
       style="display:inline"><g
         id="g1"
         transform="matrix(0.12823945,0,0,0.14340813,-0.23471835,3.2995228)"
         style="display:inline"><path
           d="m 87.7,110.45 c 0,0 -28.85,4.11 -29.55,5.05 -0.6,0.79 -1.12,1.46 1.92,4.12 2.84,2.48 14.05,10.1 37.68,2.95 13.66,-4.13 20.21,-17.15 18.02,-20.86 -2.19,-3.71 -5.68,-2.4 -5.68,-2.4 z"
           fill="#d17020"
           id="path1-6" /><path
           d="m 64.54,112.52 c 0,0 -7.28,-0.02 -6.51,3.14 0.28,1.17 7.92,3.32 13.05,3.64 5.24,0.33 14.01,0.39 25.59,-4.2 9.74,-3.86 13.83,-7.17 16.69,-11.7 1.38,-2.19 0.11,-4.93 0.11,-4.93 z"
           fill="#ac5811"
           id="path2" /><path
           d="m 8.75,69.52 c 0,0 -1.54,1.21 -2.97,5.84 -1.07,3.45 -2.97,8.7 -0.31,14.6 1.89,4.19 11.79,24.78 55.55,26.53 46.09,1.84 58.52,-22.47 60.01,-28.23 2.23,-8.67 -1.05,-13.13 -2.49,-14.18 C 117.08,73.02 8.75,69.52 8.75,69.52 Z"
           fill="#fce9c5"
           id="path3" /><path
           d="m 14.66,66.58 c -0.26,0.39 -7.35,4.86 -7.35,4.86 0,0 -3.68,8.01 2.89,16.68 6.57,8.67 20.74,18.91 51.08,20.88 30.33,1.97 53.71,-10.9 57.52,-23.37 3.81,-12.47 -3.84,-14.94 -3.84,-14.94 z"
           fill="#ffa828"
           id="path4" /><path
           d="m 77.95,93.5 c -0.13,1.44 1.21,5.21 5.6,8.32 3.31,2.35 6.23,3.2 6.61,3.49 0.05,1.08 0.29,6.9 -0.49,8.61 -0.79,1.71 -6.07,2.42 -6.07,2.42 h 8.14 c 0,0 5.12,1.84 5.12,-3.15 0,-4.99 1.07,-10.31 1.86,-11.88 0.43,-0.85 3.79,-2.68 6.03,-5.66 1.9,-2.54 2.52,-5.23 2.75,-6.36 0.23,-1.13 0.95,-3.59 -0.79,-4.73 -1.95,-1.26 -28.76,8.94 -28.76,8.94 z"
           fill="#ab580f"
           id="path5" /><path
           d="m 8.62,48.2 c 0,0 -4.86,4.86 -4.33,14.31 0.53,9.45 11.16,32.7 57.52,34.27 45.69,1.55 59.81,-23.1 61.45,-30.33 1.5,-6.61 -0.38,-11.75 -3.4,-15.82 -3.02,-4.07 -71.58,-7.29 -71.58,-7.29 z"
           fill="#fce9c5"
           id="path6" /><path
           d="m 12.3,45.57 c 0,0 -6.48,2.45 -6.04,10.51 0.53,9.72 15.63,32.57 57.38,32.43 37.16,-0.12 57.52,-20.35 57.78,-30.99 0.26,-10.51 -8.01,-11.03 -8.01,-11.03 z"
           fill="#ffa828"
           id="path7" /><path
           d="M 92.4,66.06 64.82,70 c 0,0 2.01,5.12 9.45,8.67 8.27,3.94 15.23,3.15 15.63,5.78 0.39,2.63 0.78,10.45 0.78,10.45 l 3.16,-0.6 7.98,-19.73 4.03,-5.04 c 0,0 2.56,-7.14 -0.33,-9.76 -2.88,-2.64 -13.12,6.29 -13.12,6.29 z"
           fill="#af5713"
           id="path8" /><path
           d="m 26.35,18.52 c -0.39,0 -10.64,1.44 -10.64,1.44 0,0 -8.71,4.7 -9.06,17.34 -0.4,14.18 12.74,33.75 55.68,34.01 43.99,0.27 58.94,-17.04 59.88,-29.02 1.12,-14.27 -6.96,-20.1 -6.96,-20.1 z"
           fill="#fce9c5"
           id="path9" /><path
           d="M 10.46,31.52 C 10.61,46.75 26.87,61.85 63.9,63.17 100.04,64.45 119.84,46.89 119.71,32.18 119.59,18.52 97.79,5.26 63.25,5.13 28.18,5 10.33,18.13 10.46,31.52 Z"
           fill="#ffa828"
           id="path10" /><path
           d="m 85.37,75.82 c 0.1,3.05 7.4,4.36 7.84,6.75 0.44,2.4 0.66,12.04 0.66,12.04 0,0 -1.99,0.83 -4.2,1.29 -2.5,0.52 -5.23,0.75 -4.82,2.18 1.01,3.47 8.42,5.25 8.42,5.25 0,0 0.35,5.37 0.22,7.62 -0.3,5.27 -1.75,6.17 -1.75,6.17 l 3.64,2.97 4.57,-5.65 c 0,0 -0.22,-5.08 -0.29,-6.75 -0.07,-1.67 -0.22,-5.15 -0.22,-5.15 0,0 3.66,-2.71 6.13,-7.47 1.84,-3.55 1.86,-6.1 -0.46,-5.01 -2.32,1.09 -5.98,3.11 -5.98,3.11 0,0 -0.48,-8.92 0.31,-11.24 0.8,-2.32 7.19,-11.25 6.24,-12.78 -0.95,-1.53 -6.75,1.81 -10.24,2.76 -3.47,0.93 -10.15,1.73 -10.07,3.91 z"
           fill="#d0701c"
           id="path11" /><path
           d="m 46.8,5.2 c 0,0 -8.71,0.91 -9.52,6.53 -0.82,5.62 0.27,6.44 -3.36,8.53 -3.63,2.09 -13.82,7.51 -14.37,9.5 -0.55,1.99 -1.69,7.72 11.19,9.18 8.91,1.01 11.6,-0.11 16.87,3.7 5.27,3.81 6.41,10.76 14.95,13.72 5.66,1.96 9.63,0.36 14.35,2.63 4.72,2.27 9.17,6.67 14.38,5.66 4.4,-0.85 7.28,-14.06 7.28,-14.34 0,-0.28 0.45,-15.23 0.45,-15.23 0,0 -1.96,-2.63 -0.61,-5.3 0.92,-1.83 7.8,-6.5 8.8,-9.25 0.94,-2.58 0.53,-5.39 -0.74,-6.39 -1.27,-1 -14.95,1.59 -15.22,1.22 C 90.98,14.99 74.74,11.55 72.38,10.82 70.02,10.1 46.8,5.2 46.8,5.2 Z"
           fill="#ab580f"
           id="path12" /><path
           d="m 95.6,28.51 c -0.65,5.77 6.81,5.99 7.08,13.61 0.18,5.26 -3.45,8.44 -4.99,12.06 -1.54,3.63 -3.63,6.8 -6.98,7.53 C 87.35,62.44 81.35,57.6 76.18,55.69 71.01,53.79 68.17,56.81 60.44,52.44 55.88,49.87 50.89,39.48 44.72,37.67 41.91,36.84 35.78,37 30.65,36.31 24.52,35.48 19.52,33.69 19.41,30.87 19.14,23.43 36.92,20.17 38.64,17.54 40.36,14.91 36.35,6.59 47.17,4.75 61.59,2.3 68.4,8.38 77.37,10.01 c 8.97,1.63 24.27,0.05 28.12,3.08 6.89,5.44 -9.25,9.8 -9.89,15.42 z"
           fill="#cf701e"
           id="path13" /><path
           d="m 53.83,30.15 c 0.23,0.9 1.31,7.13 4.4,8.19 3.09,1.05 9.86,-0.79 15.66,-2.03 7.27,-1.56 15.53,-2.97 15.27,-5.03 -0.39,-3.19 -4.15,-6.55 -7.34,-11.14 -1.94,-2.8 -3.8,-7.09 -6.81,-6.49 -3.01,0.6 -21.18,16.5 -21.18,16.5 z"
           fill="#ac5813"
           id="path14" /><path
           d="m 27.28,26.44 c -1.77,0.44 -2.75,4.13 1.13,5.95 4.97,2.33 10.92,2.03 11.3,-0.53 0.38,-2.56 -5.42,-1.96 -7.38,-3.31 -1.96,-1.36 -2.64,-2.71 -5.05,-2.11 z"
           fill="#fdfffc"
           id="path15" /><path
           d="m 42.8,32.61 c -1.26,1.17 0.1,2.49 1.74,3.12 1.64,0.63 2.94,0.68 3.68,-0.3 0.74,-0.97 -0.69,-2.49 -2.14,-2.92 -1.45,-0.43 -2.52,-0.61 -3.28,0.1 z"
           fill="#fdfffc"
           id="path16" /><path
           d="m 48.85,16.18 c 0,0 0.48,-1.44 2.82,-1.81 2.34,-0.37 8.15,-0.37 10.7,-0.96 2.56,-0.59 6.87,-2.77 9.1,-2.29 2.24,0.48 4.52,5.35 5.09,6.26 2.41,3.81 4.33,6.51 4.59,7.95 0.27,1.44 -11.87,6.5 -12.45,6.5 -0.58,0 -9,5.8 -11.29,1.12 -2.29,-4.68 -8.46,-16.93 -8.56,-16.77 z"
           fill="#fade62"
           id="path17" /><path
           d="m 67.64,27.73 c -2.82,0.59 -10.06,2.56 -10.06,2.56 l -1.17,3.03 c 0,0 0.48,2.4 2.13,2.5 1.65,0.11 7,-1.42 11.09,-2.48 3.73,-0.97 11.28,-2.74 11.6,-3.43 0.32,-0.69 0.67,-4.97 -0.28,-5.14 -0.58,-0.1 -3.82,0.77 -5.63,1.2 -2.55,0.6 -4.86,1.18 -7.68,1.76 z"
           fill="#f5ad02"
           id="path18" /><path
           d="m 47.85,20.07 c 0.22,0.68 2.13,4.79 3.67,7.24 1.54,2.45 5.22,8.44 6.28,8.55 0.97,0.1 0.87,-1.56 0.95,-2.63 0.09,-1.23 0.06,-2.35 -0.2,-3.2 -0.27,-0.85 -2.56,-4.47 -3.78,-6.39 -1.22,-1.92 -4.79,-8.25 -5.59,-7.99 -0.8,0.27 -1.7,3.25 -1.33,4.42 z"
           fill="#fdfffc"
           id="path19" /><path
           d="m 58.21,43.09 c -1.7,0.85 0.37,5.75 5,7.88 4.63,2.13 9.55,1.81 10.38,-0.75 0.75,-2.29 -5.52,-2.37 -8.09,-3.62 -4.15,-2.02 -5,-4.66 -7.29,-3.51 z"
           fill="#fdfffc"
           id="path20" /><path
           d="m 34.47,78.83 c -0.27,1.01 0.45,1.94 3.18,2.54 2.74,0.6 3.83,0.35 4.13,-0.6 0.3,-0.95 -0.6,-1.89 -3.04,-2.54 -2.71,-0.72 -4.07,-0.15 -4.27,0.6 z"
           fill="#fce9c5"
           id="path21" /><path
           d="m 52.83,82.51 c -0.4,1.29 1.44,3.13 7.12,3.33 5.93,0.21 9.26,-0.55 9.3,-2.64 0.03,-1.4 -4.53,-0.85 -9.11,-1.09 -4.57,-0.25 -6.94,-0.79 -7.31,0.4 z"
           fill="#fce9c5"
           id="path22" /><path
           d="m 17.95,90.47 c -0.64,0.72 -0.24,1.47 0.9,2.44 1.34,1.14 3.18,1.54 3.93,0.65 0.75,-0.89 -1,-1.89 -1.99,-2.64 -1,-0.75 -2.05,-1.35 -2.84,-0.45 z"
           fill="#fce9c5"
           id="path23" /></g><path
         style="font-size:17.3473px;font-family:'Fira Code';-inkscape-font-specification:'Fira Code';letter-spacing:-1.8091px;fill:#ffffff;stroke:#ffffff;stroke-width:0.277226;stroke-dasharray:none"
         d="m 17.307066,3.5550043 q 0.763758,0 1.463867,0.1303383 0.700112,0.121649 1.23656,0.4257718 0.536451,0.3041226 0.809219,0.8341649 0.281863,0.5213532 0.181847,1.3207613 l -0.363695,3.3192818 q -0.07275,0.5908656 0.154573,0.9992596 0.2364,0.408392 0.854679,0.616934 0.61828,0.208541 1.736639,0.208541 v 1.164356 q -1.109266,0 -1.736639,0.21723 -0.618279,0.208542 -0.854679,0.616934 -0.22731,0.408394 -0.154573,1.00795 l 0.363695,3.301903 q 0.09093,0.799409 -0.181847,1.320762 -0.272768,0.530042 -0.809219,0.834164 -0.527354,0.304124 -1.23656,0.425772 -0.700109,0.130338 -1.463867,0.130338 v -1.146977 q 0.663742,0 1.20019,-0.121649 0.545541,-0.121648 0.845588,-0.425772 0.300047,-0.304121 0.245494,-0.842853 l -0.381879,-3.562581 q -0.08182,-0.77334 0.09093,-1.242558 0.172755,-0.477907 0.618278,-0.729894 0.454619,-0.251989 1.1911,-0.347568 -0.70921,-0.112962 -1.163829,-0.391017 -0.445523,-0.278054 -0.627371,-0.75596 -0.181845,-0.477909 -0.109108,-1.207801 L 19.598337,6.0922564 Q 19.652891,5.562214 19.352844,5.2580912 19.052797,4.9539686 18.516348,4.8323196 17.979899,4.7019812 17.307066,4.7019812 Z"
         id="text1"
         aria-label="}" /></g></g></svg>
