<?xml version="1.0" encoding="UTF-8" standalone="no"?>
<!-- Created with Inkscape (http://www.inkscape.org/) -->

<svg
   width="170mm"
   height="16.701839mm"
   viewBox="0 0 170.00001 16.701839"
   version="1.1"
   id="svg1"
   xmlns="http://www.w3.org/2000/svg"
   xmlns:svg="http://www.w3.org/2000/svg">
  <defs
     id="defs1">
    <rect
       x="342.61523"
       y="546.72644"
       width="561.30585"
       height="210.35951"
       id="rect3" />
  </defs>
  <g
     id="layer1"
     transform="translate(-5.1756942,-140.14908)">
    <path
       d="m 6.8354308,142.35013 h 9.2411452 v 2.63344 H 9.8933044 v 3.15434 h 5.3054586 v 2.62379 H 9.8933044 v 4.70739 H 6.8354308 Z M 21.537039,153.2215 q 0.49196,0 0.877812,-0.1254 0.395498,-0.1254 0.665594,-0.41479 0.279742,-0.29904 0.424437,-0.78135 0.15434,-0.48232 0.15434,-1.20579 v -5.22829 h 2.99035 v 5.32476 q 0,1.36977 -0.385852,2.32475 -0.385851,0.94534 -1.070738,1.54341 -0.684886,0.58842 -1.620576,0.85852 -0.93569,0.27009 -2.035367,0.27009 -1.099677,0 -2.035367,-0.27009 -0.93569,-0.2701 -1.620577,-0.85852 -0.684886,-0.59807 -1.070738,-1.54341 -0.385852,-0.95498 -0.385852,-2.32475 v -5.32476 h 2.99035 v 5.22829 q 0,0.71383 0.144694,1.20579 0.144695,0.48231 0.414791,0.78135 0.279742,0.28939 0.67524,0.41479 0.395498,0.1254 0.887459,0.1254 z m 6.810943,-11.34404 h 2.980703 v 13.59163 h -2.980703 z m 4.987795,0 h 2.980703 v 13.59163 h -2.980703 z m 11.142789,9.51125 q 0,0.81028 0.665594,1.2926 0.665594,0.48231 1.881026,0.48231 0.665594,0 1.128616,-0.0965 0.463022,-0.10611 0.752411,-0.28939 0.289388,-0.18328 0.424436,-0.44373 0.135048,-0.27009 0.135048,-0.60771 0,-0.47267 -0.221864,-0.76206 -0.221865,-0.28939 -0.636655,-0.48232 -0.414791,-0.19292 -1.012861,-0.34726 -0.588423,-0.15434 -1.340834,-0.36656 -0.366559,-0.0965 -0.839227,-0.21222 -0.463022,-0.11575 -0.945336,-0.28939 -0.482315,-0.17363 -0.945337,-0.41479 -0.453375,-0.2508 -0.819934,-0.60771 -0.356913,-0.35692 -0.578778,-0.83923 -0.212218,-0.49196 -0.212218,-1.14791 0,-0.98392 0.318328,-1.76527 0.318327,-0.791 0.974275,-1.34084 0.665594,-0.54983 1.678454,-0.83922 1.022507,-0.28939 2.430865,-0.28939 1.157555,0 2.045013,0.29903 0.897105,0.28939 1.504821,0.82958 0.617363,0.5402 0.93569,1.3119 0.318328,0.76206 0.318328,1.70739 h -3.06752 q 0,-0.28939 -0.106109,-0.55948 -0.106109,-0.27974 -0.347267,-0.48232 -0.241157,-0.21221 -0.627008,-0.33762 -0.376206,-0.1254 -0.93569,-0.1254 -0.617363,0 -1.022507,0.10611 -0.395498,0.10611 -0.627009,0.28939 -0.231511,0.18328 -0.327974,0.41479 -0.08682,0.23151 -0.08682,0.47267 0,0.33762 0.212218,0.58842 0.221865,0.24116 0.59807,0.42444 0.376205,0.17363 0.887459,0.29903 0.511253,0.12541 1.109323,0.23151 0.684886,0.16399 1.302249,0.34727 0.627009,0.18328 1.157555,0.42444 0.530545,0.24115 0.954982,0.54984 0.434083,0.30868 0.733118,0.73311 0.308681,0.41479 0.472668,0.95499 0.163987,0.54019 0.163987,1.23472 0,0.99357 -0.424436,1.75563 -0.414791,0.75241 -1.167201,1.27331 -0.742765,0.51125 -1.774918,0.7717 -1.022506,0.26045 -2.228292,0.26045 -1.504822,0 -2.556267,-0.38585 -1.051446,-0.3955 -1.717039,-1.02251 -0.655948,-0.62701 -0.964629,-1.40836 -0.299035,-0.79099 -0.299035,-1.59163 z m 10.949203,-8.68166 2.141476,-0.0193 v 2.77813 h 2.903533 v 2.55627 h -2.903533 v 3.51125 q 0,0.46302 0.106109,0.7717 0.115756,0.29904 0.299035,0.48232 0.192926,0.17363 0.453376,0.24115 0.26045,0.0675 0.559485,0.0675 h 1.668808 l -0.01929,2.44051 h -1.938904 q -0.839227,0 -1.591638,-0.14469 -0.742764,-0.15435 -1.302249,-0.57878 -0.559484,-0.43408 -0.887458,-1.20579 -0.318328,-0.78135 -0.318328,-2.04501 v -3.54019 h -1.591637 v -2.27652 l 1.514467,-0.57878 z m 6.145347,7.76526 q 0,-1.09968 0.376206,-2.06431 0.376205,-0.97427 1.070738,-1.69774 0.694533,-0.72348 1.6881,-1.13827 0.993568,-0.42443 2.228293,-0.42443 0.993568,0 1.784564,0.32797 0.790995,0.31833 1.340834,0.76206 l 0.125402,-0.77171 h 2.536974 v 10.00321 h -2.536974 l -0.135048,-0.76206 q -0.559485,0.44373 -1.350481,0.76206 -0.781349,0.31832 -1.765271,0.31832 -1.225079,0 -2.218646,-0.41479 -0.993568,-0.42443 -1.697747,-1.13826 -0.694533,-0.72347 -1.070738,-1.6881 -0.376206,-0.97428 -0.376206,-2.07395 z m 2.980704,-0.01 q 0,0.62701 0.212218,1.13826 0.212218,0.51126 0.569131,0.87782 0.366559,0.36656 0.848874,0.56913 0.49196,0.19292 1.041799,0.19292 0.549838,0 1.032153,-0.19292 0.49196,-0.20257 0.848873,-0.55949 0.366559,-0.36656 0.569131,-0.87781 0.212219,-0.5209 0.212219,-1.14791 0,-0.61736 -0.212219,-1.11897 -0.212218,-0.51125 -0.578777,-0.86816 -0.356913,-0.36656 -0.848874,-0.55949 -0.482314,-0.20257 -1.032152,-0.20257 -0.559485,0 -1.051446,0.20257 -0.482314,0.19293 -0.839227,0.55949 -0.356913,0.35691 -0.569131,0.86816 -0.202572,0.50161 -0.202572,1.11897 z m 12.781994,0 q 0,0.6463 0.212218,1.15756 0.212218,0.51125 0.559485,0.86816 0.356912,0.34727 0.829581,0.54019 0.472668,0.18328 0.993567,0.18328 0.771704,0 1.37942,-0.3762 0.617362,-0.38585 0.93569,-1.07074 h 3.048227 q -0.202572,0.85852 -0.67524,1.60128 -0.463022,0.73312 -1.157555,1.27331 -0.694533,0.5402 -1.601284,0.83923 -0.897105,0.30868 -1.94855,0.30868 -1.225079,0 -2.247586,-0.41479 -1.022506,-0.42443 -1.755624,-1.14791 -0.733118,-0.72347 -1.147909,-1.6881 -0.405144,-0.97427 -0.405144,-2.0643 0,-1.09003 0.405144,-2.05466 0.405145,-0.97428 1.138263,-1.69775 0.733118,-0.73312 1.755624,-1.15755 1.022507,-0.42444 2.257232,-0.42444 1.051445,0 1.94855,0.30868 0.897105,0.29904 1.581992,0.83923 0.694532,0.53054 1.167201,1.27331 0.472668,0.73312 0.684886,1.60128 l -3.048227,0.01 q -0.318328,-0.69453 -0.93569,-1.07074 -0.607716,-0.38585 -1.37942,-0.38585 -0.520899,0 -0.993567,0.19293 -0.472669,0.18327 -0.829581,0.54019 -0.356913,0.35691 -0.569131,0.86816 -0.202572,0.50161 -0.202572,1.14791 z m 9.347922,-8.5852 h 2.980703 v 7.82314 l 3.318324,-4.23472 h 3.491956 l -3.366554,4.1672 3.675236,5.83601 h -3.549835 l -2.257231,-3.88746 -1.311896,1.5627 v 2.32476 h -2.980703 z m 14.740854,0.47267 h 3.05787 v 5.31511 h 5.72025 v -5.31511 h 3.06752 v 13.11896 h -3.06752 v -5.18006 h -5.72025 v 5.18006 h -3.05787 z m 13.32219,8.12218 q 0,-1.09968 0.40514,-2.06431 0.40515,-0.97427 1.13826,-1.69774 0.74277,-0.72348 1.75563,-1.13827 1.02251,-0.42443 2.25723,-0.42443 1.24437,0 2.26688,0.42443 1.03215,0.41479 1.76527,1.13827 0.74276,0.72347 1.14791,1.69774 0.41479,0.96463 0.41479,2.06431 0,0.30868 -0.0289,0.48231 -0.0193,0.17364 -0.0482,0.34727 h -8.11253 q 0.1254,0.47267 0.38585,0.84887 0.2701,0.37621 0.61736,0.6463 0.35692,0.26045 0.76206,0.40515 0.41479,0.14469 0.84887,0.14469 0.70418,0 1.22508,-0.29903 0.5209,-0.29904 0.791,-0.76206 h 3.22186 q -0.22187,0.65595 -0.67524,1.2926 -0.45338,0.62701 -1.11897,1.11897 -0.6656,0.49196 -1.54341,0.791 -0.86816,0.29903 -1.91961,0.29903 -1.22508,0 -2.24758,-0.41479 -1.02251,-0.42443 -1.75563,-1.14791 -0.73312,-0.72347 -1.14791,-1.6881 -0.40514,-0.97427 -0.40514,-2.0643 z m 5.57555,-2.96141 q -0.93569,0 -1.58199,0.47267 -0.6463,0.47266 -0.93569,1.24437 h 4.91961 q -0.27974,-0.76206 -0.88746,-1.23473 -0.60772,-0.48231 -1.51447,-0.48231 z m 7.0714,-5.63344 h 2.9807 v 13.59163 h -2.9807 z m 7.10997,10.46623 q 0.0386,0.45337 0.46303,0.73312 0.43408,0.27974 1.09003,0.27974 0.84887,0 1.22508,-0.22187 0.3762,-0.22186 0.3762,-0.62701 0,-0.24115 -0.17363,-0.38585 -0.17364,-0.15434 -0.51126,-0.27009 -0.33762,-0.11576 -0.82958,-0.21222 -0.49196,-0.0965 -1.13826,-0.24116 -0.28939,-0.0579 -0.63665,-0.13505 -0.34727,-0.0868 -0.69454,-0.22186 -0.33762,-0.1447 -0.65594,-0.34727 -0.31833,-0.21222 -0.56914,-0.5209 -0.24115,-0.30868 -0.38585,-0.73311 -0.14469,-0.43409 -0.14469,-1.01287 0,-0.76205 0.27009,-1.36977 0.27975,-0.61736 0.83923,-1.03215 0.55949,-0.42444 1.40836,-0.6463 0.84887,-0.23151 1.99678,-0.23151 0.93569,0 1.67846,0.24115 0.75241,0.24116 1.27331,0.68489 0.5209,0.44373 0.79099,1.06109 0.27974,0.60772 0.27974,1.34084 l -2.99035,-0.01 q -0.0289,-0.36656 -0.34726,-0.62701 -0.31833,-0.2701 -0.89711,-0.2701 -0.68488,0 -1.01286,0.25081 -0.32797,0.2508 -0.31832,0.57878 0,0.19292 0.1061,0.32797 0.11576,0.1254 0.34727,0.22186 0.24116,0.0868 0.60772,0.15434 0.36656,0.0675 0.87781,0.13505 0.791,0.13505 1.50482,0.32798 0.71383,0.18328 1.25402,0.5209 0.54984,0.32797 0.86816,0.86816 0.31833,0.53055 0.31833,1.35048 0,0.89711 -0.35691,1.5627 -0.35691,0.65595 -1.00321,1.09003 -0.63666,0.43409 -1.52412,0.63666 -0.88746,0.21222 -1.94855,0.21222 -1.15755,0 -1.98713,-0.30869 -0.81994,-0.30868 -1.35048,-0.80064 -0.53055,-0.5016 -0.78135,-1.11897 -0.25081,-0.62701 -0.25081,-1.24437 z m 7.4669,-6.87781 h 3 v 10.00321 h -3 z m -0.26045,-2.69131 q 0,-0.31833 0.1254,-0.60772 0.12541,-0.28939 0.35692,-0.5016 0.24115,-0.22187 0.56913,-0.34727 0.32797,-0.1254 0.73311,-0.1254 0.40515,0 0.73312,0.1254 0.32798,0.1254 0.55949,0.34727 0.24115,0.21221 0.36656,0.5016 0.1254,0.28939 0.1254,0.60772 0,0.32797 -0.1254,0.61736 -0.12541,0.27974 -0.36656,0.49196 -0.23151,0.21222 -0.56913,0.33762 -0.32798,0.1254 -0.73312,0.1254 -0.3955,0 -0.72347,-0.1254 -0.32798,-0.1254 -0.55949,-0.33762 -0.23151,-0.22186 -0.36656,-0.5016 -0.1254,-0.28939 -0.1254,-0.60772 z m 15.83022,12.69452 h -3 v -5.29582 q 0,-0.69453 -0.14469,-1.1672 -0.1447,-0.47267 -0.40515,-0.75241 -0.26045,-0.28939 -0.62701,-0.41479 -0.35691,-0.1254 -0.79099,-0.1254 -0.54984,0 -0.99357,0.21222 -0.44373,0.20257 -0.76206,0.56913 -0.30868,0.35691 -0.47267,0.85852 -0.16398,0.50161 -0.16398,1.09003 v 5.02572 h -2.98071 v -10.00321 h 2.40193 l 0.18328,0.76206 q 0.30868,-0.22186 0.68489,-0.41479 0.3762,-0.20257 0.79099,-0.34727 0.41479,-0.14469 0.84888,-0.23151 0.44372,-0.0868 0.8971,-0.0868 1.19614,0 2.05466,0.34726 0.85852,0.33762 1.40836,0.98392 0.54984,0.63666 0.81029,1.55306 0.26045,0.91639 0.26045,2.07395 z m 1.6984,-13.59163 h 2.98071 v 7.82314 l 3.31832,-4.23472 h 3.49196 l -3.36656,4.1672 3.67524,5.83601 h -3.54984 l -2.25723,-3.88746 -1.31189,1.5627 v 2.32476 h -2.98071 z m 10.96851,3.58842 h 3 v 10.00321 h -3 z m -0.26045,-2.69131 q 0,-0.31833 0.1254,-0.60772 0.1254,-0.28939 0.35692,-0.5016 0.24115,-0.22187 0.56913,-0.34727 0.32797,-0.1254 0.73311,-0.1254 0.40515,0 0.73312,0.1254 0.32798,0.1254 0.55949,0.34727 0.24115,0.21221 0.36656,0.5016 0.1254,0.28939 0.1254,0.60772 0,0.32797 -0.1254,0.61736 -0.12541,0.27974 -0.36656,0.49196 -0.23151,0.21222 -0.56913,0.33762 -0.32798,0.1254 -0.73312,0.1254 -0.3955,0 -0.72347,-0.1254 -0.32798,-0.1254 -0.55949,-0.33762 -0.23151,-0.22186 -0.36656,-0.5016 -0.1254,-0.28939 -0.1254,-0.60772 z"
       id="text3"
       style="font-size:19.7556px;font-family:'Codec Cold Trial';-inkscape-font-specification:'Codec Cold Trial';letter-spacing:-0.809625px;stroke-width:0"
       aria-label="Full Stack Helsinki" />
  </g>
</svg>
